<svg version="1.1" viewBox="0 0 200 220" xmlns="http://www.w3.org/2000/svg">
 <title>logo 9em</title>
 <path d="m-0.102 1.27e-5h201v221h-201z" style="fill-rule:evenodd;fill:#150a00"/>
 <g style="fill:#a58241;stroke-width:1.29px" aria-label="9">
  <path d="m104 119q-5.93 7.05-14.2 11.3-8.18 4.29-18 4.29-12.9 0-22.5-6.34-9.51-6.34-14.7-17.8-5.21-11.6-5.21-25.5 0-14.9 5.62-26.9 5.72-12 16.2-18.3 10.4-6.34 24.3-6.34 22.1 0 34.8 16.6 12.8 16.5 12.8 45v5.52q0 43.4-17.2 63.5-17.2 19.9-51.8 20.4h-3.68v-15.9h3.99q23.4-0.409 36-12.2 12.6-11.9 13.7-37.4zm-29.1 0q9.51 0 17.5-5.83 8.08-5.83 11.8-14.4v-7.56q0-18.6-8.08-30.3-8.08-11.7-20.4-11.7-12.5 0-20 9.61-7.56 9.51-7.56 25.1 0 15.2 7.26 25.1 7.36 9.81 19.6 9.81z"/>
 </g>
 <g style="fill:#a58241;stroke-width:1.29px" aria-label="em">
  <path d="m127 186q-4.5 0-7.32-2.94-2.82-2.96-2.82-7.91v-0.695q0-3.29 1.25-5.87 1.27-2.6 3.52-4.05 2.27-1.47 4.91-1.47 4.31 0 6.71 2.84 2.39 2.84 2.39 8.14v1.57h-15q0.0818 3.27 1.9 5.3 1.84 2 4.66 2 2 0 3.39-0.818 1.39-0.818 2.43-2.17l2.31 1.8q-2.78 4.27-8.34 4.27zm-0.47-19.8q-2.29 0-3.84 1.68-1.55 1.66-1.92 4.66h11.1v-0.286q-0.164-2.88-1.55-4.46-1.39-1.59-3.76-1.59z"/>
  <path d="m143 164 0.102 2.45q2.43-2.86 6.56-2.86 4.64 0 6.32 3.56 1.1-1.59 2.86-2.58 1.78-0.981 4.19-0.981 7.28 0 7.4 7.71v14.8h-3.78v-14.6q0-2.37-1.08-3.54-1.08-1.19-3.64-1.19-2.11 0-3.5 1.27-1.39 1.25-1.62 3.37v14.7h-3.8v-14.5q0-4.83-4.72-4.83-3.72 0-5.09 3.17v16.2h-3.78v-22.1z"/>
 </g>
</svg>
